<svg width="24" height="24" viewBox="0 0 24 24" fill="none" xmlns="http://www.w3.org/2000/svg">
<g id="parking">
<g id="Union">
<path fill-rule="evenodd" clip-rule="evenodd" d="M10.4025 16.5938H8.58V7.14375H12.63C15.0195 7.14375 15.8565 8.65575 15.8565 10.1273C15.8565 11.5043 14.9385 13.1108 12.63 13.1108H10.4025V16.5938ZM10.4025 11.3828H12.711C13.629 11.3828 13.9665 10.7213 13.9665 10.1273C13.9665 9.58725 13.683 8.87175 12.711 8.87175H10.4025V11.3828Z" fill="white"/>
<path fill-rule="evenodd" clip-rule="evenodd" d="M17 3.00003L6.99996 3.00017C5.34312 3.00019 4 4.34333 4 6.00017V17.9999C4 19.6568 5.3432 21 7.0001 20.9999L17.0001 20.9999C18.6569 20.9998 20 19.6567 20 17.9999V6.00003C20 4.34316 18.6568 3.00001 17 3.00003ZM6.99999 5.00017L17 5.00003C17.5523 5.00002 18 5.44774 18 6.00003V17.9999C18 18.5521 17.5523 18.9999 17 18.9999L7.00003 18.9999C6.44773 19 6 18.5522 6 17.9999V6.00017C6 5.44789 6.44771 5.00017 6.99999 5.00017Z" fill="white"/>
</g>
</g>
</svg>
